<svg width="32" height="32" viewBox="0 0 32 32" fill="none" xmlns="http://www.w3.org/2000/svg">
<path fill-rule="evenodd" clip-rule="evenodd" d="M17.3639 27.1912C20.3673 24.4141 26.2856 18.9418 26.2856 14.1428C26.2856 8.54108 21.7445 4 16.1428 4C10.5411 4 6 8.54108 6 14.1428C6 18.9359 11.8666 24.3635 14.8946 27.1649C15.0814 27.3377 15.2575 27.5006 15.4206 27.6527C15.8246 28.0293 16.4616 28.029 16.8658 27.6526C17.0205 27.5086 17.1872 27.3546 17.3639 27.1912ZM16.1428 17.693C18.2154 17.693 19.8956 16.0128 19.8956 13.9402C19.8956 11.8676 18.2154 10.1874 16.1428 10.1874C14.0701 10.1874 12.39 11.8676 12.39 13.9402C12.39 16.0128 14.0701 17.693 16.1428 17.693Z" fill="#222222"/>
</svg>
