<?xml version="1.0" encoding="utf-8"?>
<!-- Generator: Adobe Illustrator 24.1.0, SVG Export Plug-In . SVG Version: 6.00 Build 0)  -->
<svg version="1.1" id="Layer_1" xmlns="http://www.w3.org/2000/svg" xmlns:xlink="http://www.w3.org/1999/xlink" x="0px" y="0px"
	 viewBox="0 0 200 18" style="enable-background:new 0 0 200 18;" xml:space="preserve">
<style type="text/css">
	.st0{fill:#222222;}
	.st1{fill:#FF3158;}
	.st2{fill:#C00033;}
	.st3{fill:#FF7788;}
</style>
<g>
	<g>
		<g>
			<g>
				<polygon class="st0" points="119.21,14.61 119.21,10.21 119.09,7.66 119.18,7.64 120.2,9.91 122.61,14.34 125.02,9.91 
					126.05,7.64 126.14,7.66 126.02,10.21 126.02,14.61 128.59,14.61 128.59,3.75 125.69,3.75 122.63,9.63 122.6,9.63 119.54,3.75 
					116.64,3.75 116.64,14.61 				"/>
				<path class="st0" d="M194.88,11.86c0,1.8,0.97,2.75,2.81,2.75h1.58v-2.23h-1.73V7.64h1.87V5.46h-2.08v-2.1h-2.45V11.86z"/>
				<path class="st0" d="M194.17,5.46c0,0-0.04,0-0.43,0c-1.5,0-2.22,1.01-2.45,1.71c-0.04,0-0.09,0-0.09,0V5.46h-2.66v9.15h2.66
					c0,0,0-5.06,0-5.21c0-0.54,0.21-0.92,0.46-1.17c0.44-0.43,1.4-0.55,2.5-0.55C194.17,6.78,194.17,5.46,194.17,5.46z"/>
				<path class="st0" d="M167.86,5.46c0,0-0.04,0-0.43,0c-1.5,0-2.22,1.01-2.45,1.71c-0.04,0-0.09,0-0.09,0V5.46h-2.66v9.15h2.66
					c0,0,0-5.06,0-5.21c0-0.54,0.21-0.92,0.46-1.17c0.44-0.43,1.4-0.55,2.5-0.55C167.86,6.78,167.86,5.46,167.86,5.46z"/>
				<path class="st0" d="M152.29,10.17c0-2.98,1.58-4.93,4.42-4.93c3.13,0,4.39,2.27,4.39,4.82v0.79h-6.06v0.09
					c0,1.06,0.57,1.8,2.09,1.8c1.11,0,1.73-0.52,2.32-1.13l1.33,1.65c-0.85,0.97-2.23,1.56-3.96,1.56
					C153.93,14.83,152.29,13.19,152.29,10.17z M155.04,9.15v0.14h3.31V9.13c0-1.15-0.52-1.92-1.58-1.92
					C155.71,7.2,155.04,7.98,155.04,9.15z"/>
				<path class="st0" d="M178.56,10.17c0-3.04,1.65-4.93,4.42-4.93s4.42,1.89,4.42,4.93c0,3.04-1.65,4.66-4.42,4.66
					S178.56,13.21,178.56,10.17z M184.64,10.85V9.22c0-1.19-0.61-1.87-1.65-1.87c-1.04,0-1.65,0.68-1.65,1.87v1.64
					c0,1.19,0.61,1.87,1.65,1.87C184.03,12.73,184.64,12.04,184.64,10.85z"/>
				<path class="st0" d="M149.77,3.36h-2.39v1.1c0,0.65-0.22,1.01-0.94,1.01h-0.67v2.18h1.33v4.22c0,1.8,0.97,2.75,2.81,2.75h1.58
					v-2.23h-1.73V7.64h1.87V5.46h-1.87V3.36z"/>
				<path class="st0" d="M143.14,3.36h-2.39v1.1c0,0.65-0.22,1.01-0.94,1.01h-0.67v2.18h1.33v4.22c0,1.8,0.97,2.75,2.81,2.75h1.58
					v-2.23h-1.73V7.64h1.87V5.46h-1.87V3.36z"/>
				<path class="st0" d="M173.99,5.24c-1.22,0-2.27,0.76-2.54,1.8h-0.09V5.46h-2.66v11.91h2.66v-4.34h0.09
					c0.27,1.02,1.31,1.8,2.54,1.8c2.39,0,3.63-1.46,3.63-4.66C177.63,6.97,176.38,5.24,173.99,5.24z M174.86,11
					c0,1.19-0.74,1.67-1.74,1.67c-1.01,0-1.74-0.52-1.74-1.38v-2.5c0-0.86,0.74-1.38,1.74-1.38c1.01,0,1.74,0.77,1.74,1.96V11z"/>
				<path class="st0" d="M137.47,14.61c-0.95,0-1.64-0.65-1.8-1.65h-0.11c-0.29,1.22-1.33,1.87-2.77,1.87
					c-1.89,0-2.93-1.11-2.93-2.75c0-2,1.55-2.95,4.05-2.95h1.49V8.82c0-0.92-0.45-1.49-1.56-1.49c-1.06,0-1.62,0.54-2.03,1.11
					l-1.58-1.4c0.76-1.11,1.83-1.8,3.81-1.8c2.66,0,4.03,1.22,4.03,3.45v3.69h0.88v2.23H137.47z M135.41,11.75v-1.11h-1.29
					c-1.03,0-1.56,0.38-1.56,1.06v0.27c0,0.68,0.45,1.01,1.24,1.01C134.67,12.98,135.41,12.62,135.41,11.75z"/>
			</g>
		</g>
		<g>
			<path class="st1" d="M108.1,0l-6.41,1.79L95.28,0l-2.56,0.72v16.52l2.56,0.72l6.41-1.79l6.41,1.79l2.56-0.72V0.72L108.1,0z
				 M105.53,12.33l-3.84-1.07l-3.84,1.07v-6.7l3.84,1.07l3.84-1.07V12.33z"/>
			<g>
				<polygon class="st2" points="101.69,3.23 101.69,6.71 95.29,4.91 95.29,17.96 92.72,17.24 92.72,0.72 				"/>
				<polygon class="st2" points="105.53,13.76 101.69,12.69 101.69,16.16 108.1,17.96 108.1,4.91 105.53,5.63 				"/>
			</g>
			<g>
				<polygon class="st3" points="108.1,0 110.66,0.72 101.69,3.23 92.72,0.72 95.29,0 101.69,1.79 				"/>
				<polygon class="st3" points="101.69,11.25 105.53,12.33 105.53,13.76 101.69,12.69 97.85,13.76 97.85,12.33 				"/>
			</g>
		</g>
	</g>
	<g>
		<path class="st0" d="M2.08,10.19v4.42H0.59V3.33h4.16c1.23,0,2.2,0.32,2.9,0.95C8.35,4.9,8.7,5.74,8.7,6.78
			c0,1.1-0.34,1.94-1.03,2.53c-0.68,0.59-1.66,0.89-2.94,0.89H2.08z M2.08,8.98h2.67c0.8,0,1.41-0.19,1.83-0.56S7.22,7.5,7.22,6.79
			c0-0.67-0.21-1.21-0.64-1.62c-0.42-0.4-1.01-0.61-1.74-0.63H2.08V8.98z"/>
		<path class="st0" d="M9.85,10.34c0-0.82,0.16-1.56,0.48-2.22c0.32-0.66,0.77-1.16,1.35-1.52c0.58-0.36,1.23-0.53,1.97-0.53
			c1.14,0,2.07,0.4,2.77,1.19c0.71,0.79,1.06,1.84,1.06,3.16v0.1c0,0.82-0.16,1.55-0.47,2.2c-0.31,0.65-0.76,1.15-1.34,1.52
			c-0.58,0.36-1.25,0.54-2,0.54c-1.14,0-2.06-0.4-2.76-1.19s-1.06-1.84-1.06-3.14V10.34z M11.29,10.51c0,0.93,0.22,1.68,0.65,2.24
			c0.43,0.56,1.01,0.84,1.73,0.84c0.73,0,1.31-0.29,1.74-0.86c0.43-0.57,0.64-1.37,0.64-2.4c0-0.92-0.22-1.67-0.65-2.24
			c-0.44-0.57-1.02-0.86-1.74-0.86c-0.71,0-1.28,0.28-1.71,0.84C11.51,8.66,11.29,9.46,11.29,10.51z"/>
		<path class="st0" d="M26.43,12.64l1.61-6.41h1.43l-2.44,8.39h-1.16l-2.04-6.36l-1.98,6.36h-1.16l-2.43-8.39h1.43l1.65,6.28
			l1.95-6.28h1.15L26.43,12.64z"/>
		<path class="st0" d="M34.12,14.77c-1.14,0-2.06-0.37-2.78-1.12c-0.71-0.75-1.07-1.75-1.07-3v-0.26c0-0.83,0.16-1.57,0.48-2.23
			c0.32-0.65,0.76-1.17,1.33-1.54s1.19-0.55,1.86-0.55c1.09,0,1.94,0.36,2.54,1.08c0.6,0.72,0.91,1.75,0.91,3.09v0.6h-5.68
			c0.02,0.83,0.26,1.5,0.72,2c0.46,0.51,1.05,0.76,1.76,0.76c0.51,0,0.94-0.1,1.29-0.31c0.35-0.21,0.66-0.48,0.92-0.82l0.88,0.68
			C36.58,14.23,35.52,14.77,34.12,14.77z M33.94,7.25c-0.58,0-1.06,0.21-1.46,0.63c-0.39,0.42-0.64,1.01-0.73,1.77h4.2V9.54
			c-0.04-0.73-0.24-1.29-0.59-1.69C35.02,7.45,34.54,7.25,33.94,7.25z"/>
		<path class="st0" d="M43.16,7.51c-0.22-0.04-0.45-0.05-0.71-0.05c-0.94,0-1.58,0.4-1.91,1.2v5.95h-1.43V6.23h1.4l0.02,0.97
			c0.47-0.75,1.14-1.12,2-1.12c0.28,0,0.49,0.04,0.64,0.11V7.51z"/>
		<path class="st0" d="M47.82,14.77c-1.14,0-2.06-0.37-2.78-1.12c-0.71-0.75-1.07-1.75-1.07-3v-0.26c0-0.83,0.16-1.57,0.48-2.23
			c0.32-0.65,0.76-1.17,1.33-1.54s1.19-0.55,1.86-0.55c1.09,0,1.94,0.36,2.54,1.08c0.6,0.72,0.91,1.75,0.91,3.09v0.6h-5.68
			c0.02,0.83,0.26,1.5,0.72,2c0.46,0.51,1.05,0.76,1.76,0.76c0.51,0,0.94-0.1,1.29-0.31c0.35-0.21,0.66-0.48,0.92-0.82l0.88,0.68
			C50.28,14.23,49.23,14.77,47.82,14.77z M47.64,7.25c-0.58,0-1.06,0.21-1.46,0.63c-0.39,0.42-0.64,1.01-0.73,1.77h4.2V9.54
			c-0.04-0.73-0.24-1.29-0.59-1.69C48.72,7.45,48.24,7.25,47.64,7.25z"/>
		<path class="st0" d="M52.46,10.35c0-1.29,0.3-2.32,0.91-3.1c0.61-0.78,1.41-1.17,2.4-1.17c0.98,0,1.76,0.34,2.33,1.01V2.71h1.43
			v11.91h-1.32l-0.07-0.9c-0.57,0.7-1.37,1.05-2.4,1.05c-0.97,0-1.76-0.4-2.38-1.19c-0.61-0.8-0.92-1.83-0.92-3.12V10.35z
			 M53.9,10.51c0,0.95,0.2,1.7,0.59,2.23c0.39,0.54,0.94,0.81,1.63,0.81c0.91,0,1.57-0.41,1.99-1.22V8.47
			c-0.43-0.79-1.09-1.19-1.98-1.19c-0.7,0-1.25,0.27-1.64,0.81C54.09,8.64,53.9,9.45,53.9,10.51z"/>
		<path class="st0" d="M72.95,10.51c0,1.28-0.29,2.31-0.88,3.09c-0.59,0.78-1.38,1.17-2.37,1.17c-1.06,0-1.88-0.37-2.46-1.12
			l-0.07,0.97h-1.32V2.71h1.43v4.44c0.58-0.72,1.38-1.08,2.4-1.08s1.82,0.39,2.4,1.15c0.58,0.77,0.87,1.82,0.87,3.16V10.51z
			 M71.52,10.35c0-0.98-0.19-1.73-0.57-2.26c-0.38-0.53-0.92-0.8-1.63-0.8c-0.95,0-1.63,0.44-2.04,1.32v3.63
			c0.44,0.88,1.12,1.32,2.05,1.32c0.69,0,1.22-0.27,1.6-0.8C71.33,12.22,71.52,11.42,71.52,10.35z"/>
		<path class="st0" d="M77.27,12.51l1.95-6.29h1.53l-3.37,9.68C76.86,17.3,76.03,18,74.89,18l-0.27-0.02l-0.53-0.1v-1.16l0.39,0.03
			c0.49,0,0.86-0.1,1.14-0.29c0.27-0.2,0.49-0.56,0.67-1.08l0.32-0.85l-2.99-8.29h1.57L77.27,12.51z"/>
	</g>
</g>
</svg>
