<svg width="25" height="25" viewBox="0 0 25 25" fill="none" xmlns="http://www.w3.org/2000/svg">
<path fill-rule="evenodd" clip-rule="evenodd" d="M12.1802 0.0216846C12.024 0.0428196 11.76 0.119434 11.5937 0.192037C11.3109 0.315423 10.9403 0.674474 5.89987 5.70956C2.93464 8.67165 0.435909 11.2052 0.347095 11.3398C0.077572 11.7481 0 12.0161 0 12.5384C0 12.9753 0.0111446 13.0266 0.185743 13.3946C0.371339 13.7856 0.375396 13.7899 5.8069 19.2232C12.0918 25.5102 11.4884 24.9895 12.4888 24.9895C13.4893 24.9895 12.886 25.5103 19.1684 19.2232C23.6855 14.7027 24.6242 13.7406 24.7358 13.5169C25.0763 12.8341 25.0872 12.2354 24.7711 11.5655C24.6591 11.328 23.9168 10.5634 19.2861 5.91587C15.787 2.40398 13.8299 0.474523 13.6397 0.349278C13.1968 0.0575457 12.7151 -0.0505758 12.1802 0.0216846ZM14.6076 6.34929C14.6923 6.38955 15.6634 7.32522 16.7655 8.42854L18.7694 10.4347L16.7655 12.4408C15.6634 13.5441 14.6923 14.4798 14.6076 14.52C14.2692 14.6808 13.8891 14.5686 13.6419 14.235C13.5451 14.1043 13.5389 14.027 13.5245 12.7795L13.5094 11.4621L11.9604 11.4632C11.0809 11.4639 10.3163 11.4862 10.1914 11.5147C9.89554 11.5823 9.64699 11.7624 9.50348 12.0131L9.3849 12.2204L9.36046 14.1077L9.33602 15.9949L9.20116 16.1987C9.12701 16.3108 8.97656 16.462 8.86682 16.5347C8.40168 16.8427 7.73105 16.6806 7.42995 16.1872L7.28307 15.9465L7.26748 14.2302C7.25726 13.1091 7.27144 12.3782 7.30829 12.1225C7.4605 11.0665 8.07512 10.2006 8.99386 9.74772C9.66214 9.41837 9.75154 9.40726 11.7385 9.40726H13.5094L13.5245 8.0898C13.5389 6.84234 13.5451 6.76499 13.6419 6.63432C13.8891 6.30075 14.2692 6.18857 14.6076 6.34929Z" fill="#F5F4F3"/>
</svg>
